<mxfile host="Electron" modified="2024-05-07T09:53:54.086Z" agent="Mozilla/5.0 (Macintosh; Intel Mac OS X 10_15_7) AppleWebKit/537.36 (KHTML, like Gecko) draw.io/22.1.18 Chrome/120.0.6099.199 Electron/28.1.2 Safari/537.36" etag="B09qkK9DG6sWRy2BQWH4" version="22.1.18" type="device">
  <diagram name="Page-1" id="XUlAi6d3RoqV9GR1gDZ6">
    <mxGraphModel dx="796" dy="783" grid="1" gridSize="10" guides="1" tooltips="1" connect="1" arrows="1" fold="1" page="1" pageScale="1" pageWidth="827" pageHeight="1169" math="0" shadow="0">
      <root>
        <mxCell id="0" />
        <mxCell id="1" parent="0" />
        <mxCell id="8Cc0jJPOL6PHPG0wiE6T-18" value="" style="rounded=0;whiteSpace=wrap;html=1;" parent="1" vertex="1">
          <mxGeometry x="90" y="115" width="380" height="325" as="geometry" />
        </mxCell>
        <mxCell id="8Cc0jJPOL6PHPG0wiE6T-1" value="" style="rounded=0;whiteSpace=wrap;html=1;" parent="1" vertex="1">
          <mxGeometry x="120" y="160" width="320" height="240" as="geometry" />
        </mxCell>
        <mxCell id="8Cc0jJPOL6PHPG0wiE6T-2" value="" style="rounded=0;whiteSpace=wrap;html=1;fillColor=#f8cecc;strokeColor=#b85450;" parent="1" vertex="1">
          <mxGeometry x="180" y="200" width="200" height="200" as="geometry" />
        </mxCell>
        <mxCell id="8Cc0jJPOL6PHPG0wiE6T-3" value="Image initiale" style="text;html=1;strokeColor=none;fillColor=none;align=center;verticalAlign=middle;whiteSpace=wrap;rounded=0;" parent="1" vertex="1">
          <mxGeometry x="120" y="130" width="90" height="30" as="geometry" />
        </mxCell>
        <mxCell id="8Cc0jJPOL6PHPG0wiE6T-4" value="&lt;font style=&quot;font-size: 10px;&quot;&gt;244x324&lt;/font&gt;" style="text;html=1;strokeColor=none;fillColor=none;align=center;verticalAlign=middle;whiteSpace=wrap;rounded=0;" parent="1" vertex="1">
          <mxGeometry x="390" y="380" width="50" height="20" as="geometry" />
        </mxCell>
        <mxCell id="8Cc0jJPOL6PHPG0wiE6T-5" value="&lt;font style=&quot;font-size: 10px;&quot; color=&quot;#ff3333&quot;&gt;200x200&lt;/font&gt;" style="text;html=1;strokeColor=none;fillColor=none;align=center;verticalAlign=middle;whiteSpace=wrap;rounded=0;" parent="1" vertex="1">
          <mxGeometry x="320" y="380" width="60" height="20" as="geometry" />
        </mxCell>
        <mxCell id="8Cc0jJPOL6PHPG0wiE6T-6" value="&lt;font color=&quot;#ff3333&quot;&gt;Image redimensionnÃ©e&lt;/font&gt;" style="text;html=1;strokeColor=none;fillColor=none;align=center;verticalAlign=middle;whiteSpace=wrap;rounded=0;" parent="1" vertex="1">
          <mxGeometry x="180" y="200" width="140" height="30" as="geometry" />
        </mxCell>
        <mxCell id="8Cc0jJPOL6PHPG0wiE6T-9" value="" style="endArrow=classic;startArrow=classic;html=1;rounded=0;" parent="1" edge="1">
          <mxGeometry width="50" height="50" relative="1" as="geometry">
            <mxPoint x="390" y="400" as="sourcePoint" />
            <mxPoint x="390" y="200" as="targetPoint" />
          </mxGeometry>
        </mxCell>
        <mxCell id="8Cc0jJPOL6PHPG0wiE6T-11" value="&lt;font style=&quot;font-size: 10px;&quot;&gt;target_height&lt;/font&gt;" style="text;html=1;strokeColor=none;fillColor=none;align=center;verticalAlign=middle;whiteSpace=wrap;rounded=0;rotation=-90;" parent="1" vertex="1">
          <mxGeometry x="367" y="290" width="65" height="20" as="geometry" />
        </mxCell>
        <mxCell id="8Cc0jJPOL6PHPG0wiE6T-12" value="" style="endArrow=classic;startArrow=classic;html=1;rounded=0;" parent="1" edge="1">
          <mxGeometry width="50" height="50" relative="1" as="geometry">
            <mxPoint x="180" y="410" as="sourcePoint" />
            <mxPoint x="380" y="410" as="targetPoint" />
          </mxGeometry>
        </mxCell>
        <mxCell id="8Cc0jJPOL6PHPG0wiE6T-13" value="&lt;font style=&quot;font-size: 10px;&quot;&gt;target_width&lt;/font&gt;" style="text;html=1;strokeColor=none;fillColor=none;align=center;verticalAlign=middle;whiteSpace=wrap;rounded=0;rotation=0;" parent="1" vertex="1">
          <mxGeometry x="247.5" y="410" width="65" height="20" as="geometry" />
        </mxCell>
        <mxCell id="63Q3msdR_8ftIV9UNTYL-1" value="" style="endArrow=classic;startArrow=classic;html=1;rounded=0;" edge="1" parent="1">
          <mxGeometry width="50" height="50" relative="1" as="geometry">
            <mxPoint x="120" y="240" as="sourcePoint" />
            <mxPoint x="180" y="240" as="targetPoint" />
          </mxGeometry>
        </mxCell>
        <mxCell id="63Q3msdR_8ftIV9UNTYL-2" value="&lt;font style=&quot;font-size: 10px;&quot;&gt;left_offset&lt;br&gt;&lt;/font&gt;" style="text;html=1;strokeColor=none;fillColor=none;align=center;verticalAlign=middle;whiteSpace=wrap;rounded=0;rotation=0;" vertex="1" parent="1">
          <mxGeometry x="125" y="217" width="50" height="20" as="geometry" />
        </mxCell>
        <mxCell id="63Q3msdR_8ftIV9UNTYL-3" value="" style="endArrow=classic;startArrow=classic;html=1;rounded=0;" edge="1" parent="1">
          <mxGeometry width="50" height="50" relative="1" as="geometry">
            <mxPoint x="210" y="160" as="sourcePoint" />
            <mxPoint x="210" y="200" as="targetPoint" />
          </mxGeometry>
        </mxCell>
        <mxCell id="63Q3msdR_8ftIV9UNTYL-4" value="&lt;font style=&quot;font-size: 10px;&quot;&gt;top_offset&lt;/font&gt;" style="text;html=1;strokeColor=none;fillColor=none;align=center;verticalAlign=middle;whiteSpace=wrap;rounded=0;rotation=0;" vertex="1" parent="1">
          <mxGeometry x="220" y="170" width="50" height="20" as="geometry" />
        </mxCell>
      </root>
    </mxGraphModel>
  </diagram>
</mxfile>
